# xmcd
#
# Track frame offsets:
#	150
#	17167
#	35704
#	53117
#	68787
#	83909
#	102221
#	118281
#	135815
#	152746
#	166285
#	184645
#	203626
#	225869
#
# Disc length: 3200 seconds
#
# Revision: 0
# Processed by: cddbd v1.5.1PL0 Copyright (c) Steve Scherf et al.
# Submitted via: EasyCDDAExtractor 7.1.2.1
#
DISCID=ac0c7e0e
DTITLE=Robin English - Hello Me
DYEAR=2004
DGENRE=Country
TTITLE0=Hello Me
TTITLE1=Let Love Drive
TTITLE2=In My Life
TTITLE3=Wake Up Loving You
TTITLE4=Life Is Hard
TTITLE5=I'm The One
TTITLE6=All The Way
TTITLE7=Enjoy The Ride
TTITLE8=Least I Can Do
TTITLE9=You See My Through
TTITLE10=Somewhere Along The Way
TTITLE11=Cotton Field Girl
TTITLE12=Mission Of Mercy
TTITLE13=Till Then
EXTD=
EXTT0=
EXTT1=
EXTT2=
EXTT3=
EXTT4=
EXTT5=
EXTT6=
EXTT7=
EXTT8=
EXTT9=
EXTT10=
EXTT11=
EXTT12=
EXTT13=
PLAYORDER=
